<svg width="31" height="33" viewBox="0 0 31 33" fill="none" xmlns="http://www.w3.org/2000/svg">
<path d="M15.5039 18.9216C15.6698 19.016 15.8494 19.0612 16.0274 19.0612C16.394 19.0612 16.7504 18.8701 16.9454 18.5292C17.2343 18.023 17.0587 17.3777 16.5525 17.0883C12.5249 14.7859 10.3776 12.2256 9.79467 9.02917C9.53557 7.6054 9.83644 5.49643 11.092 3.99203C12.133 2.7439 13.6374 2.11123 15.5628 2.11123C18.5705 2.11123 20.7161 3.77695 21.3024 6.56719C21.879 9.31283 20.668 12.8811 17.2382 14.3889C16.7046 14.6245 16.4614 15.2475 16.6965 15.7812C16.9316 16.3148 17.5557 16.5557 18.0882 16.3229C22.5482 14.362 24.1213 9.71328 23.3697 6.13362C22.7468 3.16839 20.3689 0 15.5634 0C12.3481 0 10.4754 1.43518 9.46977 2.63929C7.66108 4.80608 7.3945 7.63924 7.71658 9.40732C8.64038 14.4742 12.6033 17.2645 15.5039 18.9216Z" fill="#476BF0"/>
<path d="M29.4244 30.8887H2.63591C2.67252 26.4293 2.94767 23.5029 3.45447 22.1803C4.12717 20.4226 7.03181 18.8306 8.80562 18.0487C10.3626 20.7744 12.8143 22.3714 15.5165 22.3709C18.1837 22.3709 20.6131 20.7738 22.1655 18.0482C23.9388 18.829 26.8417 20.4181 27.5162 22.1816C28.1763 23.8976 28.1408 25.9334 28.1093 27.7295C28.103 28.1116 28.0968 28.4828 28.0968 28.8386C28.0968 29.422 28.5699 29.8945 29.1533 29.8945C29.7367 29.8945 30.2092 29.422 30.2092 28.8386C30.2092 28.4942 30.215 28.1356 30.2212 27.7661C30.2561 25.7766 30.295 23.5229 29.4884 21.4253C28.206 18.0711 22.6626 15.946 22.0346 15.7149C21.5175 15.5256 20.9409 15.7641 20.7104 16.2646C19.5435 18.8027 17.6507 20.2584 15.5176 20.259C13.3772 20.259 11.4123 18.7661 10.262 16.2646C10.032 15.7641 9.4566 15.5256 8.93782 15.7149C8.3103 15.946 2.76695 18.0711 1.48336 21.4242C0.619627 23.6745 0.519531 28.5063 0.519531 31.9447C0.519531 32.5276 0.992553 33 1.57547 33H29.4239C30.0074 33 30.4804 32.5281 30.4804 31.9447C30.4804 31.3612 30.0079 30.8887 29.4244 30.8887Z" fill="#476BF0"/>
</svg>
