<svg width="30" height="27" viewBox="0 0 30 27" fill="none" xmlns="http://www.w3.org/2000/svg">
<path d="M30 0H0V22.9688H10.5469C10.5469 23.938 9.75832 24.7266 8.78906 24.7266H3.51562V26.4844H26.4844V24.7266H21.2109C20.2417 24.7266 19.4531 23.938 19.4531 22.9688H30V0ZM28.2422 1.75781V17.6953H1.75781V1.75781H28.2422ZM1.75781 21.2109V19.4531H24.7266V21.2109H1.75781ZM18.1683 24.7266H11.8317C12.1319 24.209 12.3047 23.6089 12.3047 22.9688H17.6953C17.6953 23.6089 17.8681 24.209 18.1683 24.7266ZM26.4844 21.2109V19.4531H28.2422V21.2109H26.4844Z" fill="#476BF0"/>
<path d="M15 15.9375C18.4247 15.9375 21.2109 13.1513 21.2109 9.72656C21.2109 6.30182 18.4247 3.51562 15 3.51562C11.5753 3.51562 8.78906 6.30182 8.78906 9.72656C8.78906 13.1513 11.5753 15.9375 15 15.9375ZM19.4531 9.72656C19.4531 12.1821 17.4555 14.1797 15 14.1797C14.6879 14.1797 14.3834 14.1471 14.0893 14.0857C15.2181 12.9371 15.8789 11.3733 15.8789 9.72656C15.8789 8.07979 15.2181 6.51603 14.0893 5.36742C14.3834 5.30602 14.6879 5.27344 15 5.27344C17.4555 5.27344 19.4531 7.27107 19.4531 9.72656ZM12.3349 6.16113C13.4477 6.99639 14.1211 8.3192 14.1211 9.72656C14.1211 11.1339 13.4477 12.4567 12.3349 13.292C11.2501 12.4791 10.5469 11.1834 10.5469 9.72656C10.5469 8.26969 11.2501 6.97406 12.3349 6.16113Z" fill="#476BF0"/>
<path d="M6.15234 14.1797H7.91016V15.9375H6.15234V14.1797Z" fill="#476BF0"/>
<path d="M22.0898 14.1797H23.8477V15.9375H22.0898V14.1797Z" fill="#476BF0"/>
<path d="M3.51562 11.543H5.27344V13.3008H3.51562V11.543Z" fill="#476BF0"/>
<path d="M22.0898 3.51562H23.8477V5.27344H22.0898V3.51562Z" fill="#476BF0"/>
<path d="M6.15234 3.51562H7.91016V5.27344H6.15234V3.51562Z" fill="#476BF0"/>
<path d="M24.7266 6.15234H26.4844V7.91016H24.7266V6.15234Z" fill="#476BF0"/>
</svg>
