<svg width="14" height="14" viewBox="0 0 14 14" fill="none" xmlns="http://www.w3.org/2000/svg">
<path d="M13.987 13.7327C14.0048 13.6746 14.0043 13.6126 13.9855 13.5548L13.9948 13.5457L12.8172 9.86138C12.7647 9.73138 12.6936 9.60924 12.6059 9.49869L4.05471 1.18102C3.73719 0.871374 3.22174 0.870731 2.9034 1.17958L2.90192 1.18102L0.89464 3.1335C0.576303 3.44235 0.575642 3.94373 0.893164 4.25338L0.89464 4.25481L2.15929 5.48493L9.44579 12.5816C9.53583 12.6833 9.6405 12.7719 9.75652 12.8445L13.6002 13.9356C13.7646 13.9835 13.9378 13.8926 13.987 13.7327ZM1.33587 3.81656C1.26328 3.74198 1.26328 3.62517 1.33587 3.55059L3.34005 1.6102C3.41501 1.53676 3.53697 1.53634 3.61247 1.60922L3.61348 1.6102L4.65752 2.62573L3.51716 3.73496L2.3768 4.84418L1.33587 3.81656ZM10.7073 12.4727L11.6053 11.5993L12.4567 10.7681L13.2366 13.186L10.7073 12.4727Z" fill="black"/>
</svg>
