<svg width="30" height="30" viewBox="0 0 30 30" fill="none" xmlns="http://www.w3.org/2000/svg">
<path d="M8.90175 14.24C8.13687 14.24 7.5144 14.8623 7.5144 15.6272V21.2905C7.5144 22.0555 8.13676 22.6779 8.90175 22.6779H10.6121C11.377 22.6779 11.9995 22.0555 11.9995 21.2905V15.6272C11.9995 14.8623 11.3771 14.24 10.6121 14.24H8.90175ZM10.6312 21.2905C10.6312 21.301 10.6226 21.3096 10.6121 21.3096H8.90175C8.89126 21.3096 8.88271 21.301 8.88271 21.2905V15.6272C8.88271 15.6167 8.89126 15.6082 8.90175 15.6082H10.6121C10.6226 15.6082 10.6312 15.6167 10.6312 15.6272V21.2905Z" fill="#476BF0"/>
<path d="M15.8573 11.1232H14.1469C13.382 11.1232 12.7595 11.7455 12.7595 12.5105V21.2905C12.7595 22.0555 13.3819 22.6778 14.1469 22.6778H15.8573C16.6221 22.6778 17.2446 22.0555 17.2446 21.2905V12.5105C17.2446 11.7455 16.6222 11.1232 15.8573 11.1232ZM15.8763 21.2905C15.8763 21.301 15.8677 21.3095 15.8573 21.3095H14.1469C14.1364 21.3095 14.1278 21.301 14.1278 21.2905V12.5105C14.1278 12.5 14.1364 12.4915 14.1469 12.4915H15.8573C15.8677 12.4915 15.8763 12.5 15.8763 12.5105V21.2905Z" fill="#476BF0"/>
<path d="M19.392 7.32239C18.6271 7.32239 18.0046 7.94474 18.0046 8.70974V21.2905C18.0046 22.0555 18.627 22.6779 19.392 22.6779H21.1024C21.8673 22.6779 22.4897 22.0555 22.4897 21.2905V8.70974C22.4897 7.94474 21.8674 7.32239 21.1024 7.32239H19.392ZM21.1214 21.2905C21.1214 21.301 21.1129 21.3096 21.1024 21.3096H19.392C19.3815 21.3096 19.3729 21.301 19.3729 21.2905V8.70974C19.3729 8.69925 19.3815 8.69069 19.392 8.69069H21.1024C21.1129 8.69069 21.1214 8.69925 21.1214 8.70974V21.2905Z" fill="#476BF0"/>
<path d="M29.7003 12.0049C29.6249 11.6347 29.264 11.3959 28.8933 11.4711C28.5231 11.5464 28.2841 11.9078 28.3594 12.278C29.4184 17.4786 27.3367 22.8664 23.0563 26.0041C20.1377 28.1436 16.5373 29.0146 12.9171 28.4571C9.29723 27.8995 6.12549 25.985 3.98603 23.0664C1.84669 20.1478 0.975531 16.547 1.53312 12.9272C2.0907 9.30731 4.00519 6.13557 6.92367 3.99623C9.84227 1.85665 13.4434 0.985612 17.0629 1.5432C20.6336 2.09326 23.7677 3.9643 25.9057 6.81642L25.0392 6.64949C24.6686 6.57822 24.3095 6.82075 24.2381 7.19191C24.1666 7.56295 24.4095 7.92167 24.7805 7.99305L27.3211 8.48245C27.364 8.49077 27.4073 8.49476 27.4505 8.49476C27.5862 8.49476 27.7201 8.4544 27.8341 8.3772C27.9843 8.27538 28.0881 8.11825 28.1224 7.94003L28.6118 5.39943C28.6833 5.02839 28.4404 4.66966 28.0694 4.59828C27.6982 4.52679 27.3396 4.76966 27.2682 5.1407L27.0826 6.10467C24.7273 2.90284 21.2441 0.802829 17.2715 0.190854C13.2901 -0.422831 9.32801 0.537036 6.11466 2.89258C2.90142 5.248 0.794003 8.73775 0.18066 12.7188C-0.43257 16.6999 0.526955 20.662 2.88238 23.8753C5.23792 27.0887 8.72767 29.1961 12.7086 29.8093C13.4935 29.9303 14.2775 29.9899 15.0554 29.9899C18.2228 29.9899 21.2854 28.9986 23.8652 27.1075C28.575 23.6551 30.8654 17.7271 29.7003 12.0049Z" fill="#476BF0"/>
</svg>
